<svg width="77" height="80" viewBox="0 0 77 80" fill="none" xmlns="http://www.w3.org/2000/svg">
<path d="M40.0769 0C33.0769 0 28.8869 0.984615 26.2236 2.21231C24.8902 2.82769 23.9436 3.47385 23.3069 4.13538C22.8698 4.62696 22.5178 5.17812 22.2636 5.76923C22.159 6.01635 22.0896 6.2749 22.0569 6.53846L20.2836 27.5969C20.2602 27.7262 20.3069 27.9354 20.2836 28.0769L20.0769 30.1938C20.0575 30.3852 20.0575 30.5779 20.0769 30.7692C20.0769 40.9231 29.0769 49.2308 40.0769 49.2308C51.0769 49.2308 60.0769 40.9231 60.0769 30.7692V30.2892C60.0774 30.2574 60.0774 30.2256 60.0769 30.1938L58.0969 6.53846C58.0642 6.2749 57.9948 6.01635 57.8902 5.76923C57.8902 5.76923 57.4869 4.79692 56.8469 4.13538C56.2102 3.47077 55.2636 2.82462 53.9302 2.21231C51.2669 0.981538 47.0769 0 40.0769 0ZM40.0769 49.2308C18.0769 49.2308 0.0769043 58.7877 0.0769043 67.4031V80H80.0769V67.4031C80.0769 59.2185 63.8036 50.2031 43.3069 49.3262C42.2317 49.2607 41.1544 49.2288 40.0769 49.2308ZM40.0769 6.15385C46.4102 6.15385 49.5736 7.07692 50.9102 7.69231C51.3569 7.89846 51.4102 7.97846 51.5369 8.07692L52.8902 23.8462C49.8236 24.0185 45.6436 24.6154 40.0769 24.6154C34.5102 24.6154 30.3336 24.0185 27.2636 23.8462L28.6169 8.07692C28.7402 7.97846 28.7969 7.89846 29.2436 7.69231C30.5802 7.07692 33.7436 6.15385 40.0769 6.15385ZM37.3669 9.23077V12.8862H33.4102V17.8862H37.3702V21.5385H42.7836V17.8831H46.7436V12.8862H42.7836V9.23077H37.3669ZM30.0769 56.1538L38.6202 73.8462H6.74357V67.4031C6.74357 65.1108 15.2436 58.3969 30.0769 56.1538ZM50.0769 56.1538C64.9102 58.4 73.4102 65.1108 73.4102 67.4031V73.8462H41.5336L50.0769 56.1538Z" fill="#2F98C2"/>
</svg>
