<svg width="94" height="76" viewBox="0 0 94 76" fill="none" xmlns="http://www.w3.org/2000/svg">
<path d="M4.075 40.4031L21.4406 18.075C23.1513 15.8751 25.548 14.3099 28.25 13.6281V13.25C28.25 12.4212 28.5792 11.6263 29.1653 11.0403C29.7513 10.4542 30.5462 10.125 31.375 10.125C31.375 9.2962 31.7042 8.50134 32.2903 7.91529C32.8763 7.32924 33.6712 7 34.5 7C35.3288 7 36.1237 7.32924 36.7097 7.91529C37.2958 8.50134 37.625 9.2962 37.625 10.125C38.05 10.125 38.4531 10.2094 38.8219 10.3625C40.0094 7.51502 42.0132 5.08273 44.5808 3.37214C47.1484 1.66155 50.1648 0.749178 53.25 0.750001H81.375C84.6902 0.750001 87.8696 2.06696 90.2138 4.41117C92.558 6.75537 93.875 9.93479 93.875 13.25V53.875C93.875 57.1902 92.558 60.3696 90.2138 62.7138C87.8696 65.058 84.6902 66.375 81.375 66.375H81.2656C80.8894 68.9785 79.5877 71.3592 77.5991 73.0811C75.6104 74.8029 73.068 75.7507 70.4375 75.7507C67.807 75.7507 65.2646 74.8029 63.2759 73.0811C61.2873 71.3592 59.9856 68.9785 59.6094 66.375H34.3906C34.0144 68.9785 32.7127 71.3592 30.7241 73.0811C28.7354 74.8029 26.193 75.7507 23.5625 75.7507C20.932 75.7507 18.3896 74.8029 16.4009 73.0811C14.4123 71.3592 13.1106 68.9785 12.7344 66.375H12.625C9.30979 66.375 6.13037 65.058 3.78617 62.7138C1.44196 60.3696 0.125 57.1902 0.125 53.875V51.9125C0.125549 47.7436 1.51544 43.6938 4.075 40.4031ZM81.375 60.125C82.4721 60.125 83.5498 59.8362 84.4999 59.2876C85.45 58.7391 86.239 57.9501 86.7875 57H84.5C83.6712 57 82.8763 56.6708 82.2903 56.0847C81.7042 55.4987 81.375 54.7038 81.375 53.875C81.375 53.0462 81.7042 52.2513 82.2903 51.6653C82.8763 51.0792 83.6712 50.75 84.5 50.75H87.625V47.625H43.875V60.125H60.5531C61.4397 58.2537 62.8392 56.6725 64.5889 55.5653C66.3387 54.458 68.3668 53.8702 70.4375 53.8702C72.5082 53.8702 74.5363 54.458 76.2861 55.5653C78.0358 56.6725 79.4353 58.2537 80.3219 60.125H81.375ZM40.75 60.125V19.5H31.3062C30.3544 19.4998 29.415 19.7171 28.5598 20.1352C27.7047 20.5533 26.9563 21.1612 26.3719 21.9125L25.8188 22.625H34.5C35.3288 22.625 36.1237 22.9542 36.7097 23.5403C37.2958 24.1263 37.625 24.9212 37.625 25.75V32C37.625 33.6576 36.9665 35.2473 35.7944 36.4194C34.6223 37.5915 33.0326 38.25 31.375 38.25H13.6656L9.00937 44.2406C8.21251 45.2646 7.57994 46.4064 7.13438 47.625H9.5C10.3288 47.625 11.1237 47.9542 11.7097 48.5403C12.2958 49.1263 12.625 49.9212 12.625 50.75V53.875C12.625 54.7038 12.2958 55.4987 11.7097 56.0847C11.1237 56.6708 10.3288 57 9.5 57H7.2125C7.76104 57.9501 8.55 58.7391 9.50009 59.2876C10.4502 59.8362 11.5279 60.125 12.625 60.125H13.6781C14.5647 58.2537 15.9642 56.6725 17.7139 55.5653C19.4637 54.458 21.4918 53.8702 23.5625 53.8702C25.6332 53.8702 27.6613 54.458 29.4111 55.5653C31.1608 56.6725 32.5603 58.2537 33.4469 60.125H40.75ZM86.7875 10.125C86.239 9.1749 85.45 8.38593 84.4999 7.83738C83.5498 7.28883 82.4721 7.00003 81.375 7H53.25C51.9307 6.99806 50.6259 7.27553 49.4216 7.81415C48.2172 8.35277 47.1406 9.14033 46.2625 10.125H86.7875ZM65.75 19.5C64.9212 19.5 64.1263 19.8292 63.5403 20.4153C62.9542 21.0013 62.625 21.7962 62.625 22.625V25.75H59.5C58.6712 25.75 57.8763 26.0792 57.2903 26.6653C56.7042 27.2513 56.375 28.0462 56.375 28.875C56.375 29.7038 56.7042 30.4987 57.2903 31.0847C57.8763 31.6708 58.6712 32 59.5 32H62.625V35.125C62.625 35.9538 62.9542 36.7487 63.5403 37.3347C64.1263 37.9208 64.9212 38.25 65.75 38.25C66.5788 38.25 67.3737 37.9208 67.9597 37.3347C68.5458 36.7487 68.875 35.9538 68.875 35.125V32H72C72.8288 32 73.6237 31.6708 74.2097 31.0847C74.7958 30.4987 75.125 29.7038 75.125 28.875C75.125 28.0462 74.7958 27.2513 74.2097 26.6653C73.6237 26.0792 72.8288 25.75 72 25.75H68.875V22.625C68.875 21.7962 68.5458 21.0013 67.9597 20.4153C67.3737 19.8292 66.5788 19.5 65.75 19.5ZM28.25 64.8125C28.25 63.5693 27.7561 62.377 26.8771 61.4979C25.998 60.6189 24.8057 60.125 23.5625 60.125C22.3193 60.125 21.127 60.6189 20.2479 61.4979C19.3689 62.377 18.875 63.5693 18.875 64.8125C18.875 66.0557 19.3689 67.248 20.2479 68.1271C21.127 69.0061 22.3193 69.5 23.5625 69.5C24.8057 69.5 25.998 69.0061 26.8771 68.1271C27.7561 67.248 28.25 66.0557 28.25 64.8125ZM75.125 64.8125C75.125 64.1969 75.0038 63.5874 74.7682 63.0187C74.5326 62.45 74.1873 61.9332 73.7521 61.4979C73.3168 61.0627 72.8 60.7174 72.2313 60.4818C71.6626 60.2462 71.0531 60.125 70.4375 60.125C69.8219 60.125 69.2124 60.2462 68.6437 60.4818C68.075 60.7174 67.5582 61.0627 67.1229 61.4979C66.6877 61.9332 66.3424 62.45 66.1068 63.0187C65.8712 63.5874 65.75 64.1969 65.75 64.8125C65.75 66.0557 66.2439 67.248 67.1229 68.1271C68.002 69.0061 69.1943 69.5 70.4375 69.5C71.6807 69.5 72.873 69.0061 73.7521 68.1271C74.6311 67.248 75.125 66.0557 75.125 64.8125Z" fill="#2F98C2"/>
</svg>
