<svg width="67" height="68" viewBox="0 0 67 68" fill="none" xmlns="http://www.w3.org/2000/svg">
<path d="M33.5001 60.6667C40.5725 60.6667 47.3553 57.8572 52.3563 52.8563C57.3572 47.8553 60.1667 41.0725 60.1667 34.0001C60.1667 26.9276 57.3572 20.1449 52.3563 15.1439C47.3553 10.1429 40.5725 7.33341 33.5001 7.33341C26.4276 7.33341 19.6449 10.1429 14.6439 15.1439C9.64293 20.1449 6.83341 26.9276 6.83341 34.0001C6.83341 41.0725 9.64293 47.8553 14.6439 52.8563C19.6449 57.8572 26.4276 60.6667 33.5001 60.6667ZM33.5001 0.666748C37.8775 0.666748 42.212 1.52894 46.2562 3.2041C50.3004 4.87925 53.975 7.33457 57.0703 10.4299C60.1656 13.5251 62.6209 17.1998 64.2961 21.244C65.9712 25.2882 66.8334 29.6227 66.8334 34.0001C66.8334 42.8406 63.3215 51.3191 57.0703 57.5703C50.8191 63.8215 42.3406 67.3334 33.5001 67.3334C15.0667 67.3334 0.166748 52.3334 0.166748 34.0001C0.166748 25.1595 3.67864 16.6811 9.92986 10.4299C16.1811 4.17864 24.6595 0.666748 33.5001 0.666748ZM35.1667 17.3334V34.8334L50.1667 43.7334L47.6667 47.8334L30.1667 37.3334V17.3334H35.1667Z" fill="#2F98C2"/>
</svg>
