<svg width="43" height="43" viewBox="0 0 43 43" fill="none" xmlns="http://www.w3.org/2000/svg">
<circle cx="21.5" cy="21.5" r="21" fill="white" stroke="#1330C6"/>
<path d="M24.6775 10.75C22.9453 10.75 21.2841 11.3241 20.0592 12.3459C18.8344 13.3677 18.1463 14.7536 18.1463 16.1986V19.2322H14.6512C14.4761 19.2322 14.3335 19.35 14.3335 19.4973V23.5027C14.3335 23.6488 14.4747 23.7678 14.6512 23.7678H18.1463V31.9849C18.1463 32.131 18.2875 32.25 18.464 32.25H23.2654C23.4405 32.25 23.5831 32.1322 23.5831 31.9849V23.7678H27.1092C27.2547 23.7678 27.3818 23.6853 27.4171 23.5675L28.6174 19.5621C28.6292 19.523 28.6302 19.4822 28.6202 19.4427C28.6103 19.4033 28.5897 19.3662 28.56 19.3344C28.5303 19.3026 28.4923 19.2769 28.4489 19.2592C28.4055 19.2414 28.3579 19.2322 28.3096 19.2322H23.5831V16.1986C23.5831 16.0787 23.6114 15.96 23.6664 15.8492C23.7214 15.7385 23.802 15.6378 23.9036 15.553C24.0053 15.4683 24.1259 15.401 24.2587 15.3551C24.3915 15.3092 24.5338 15.2856 24.6775 15.2856H28.3491C28.5242 15.2856 28.6668 15.1678 28.6668 15.0205V11.0151C28.6668 10.869 28.5256 10.75 28.3491 10.75H24.6775Z" fill="#1330C6"/>
</svg>
