<svg width="34" height="34" viewBox="0 0 34 34" fill="none" xmlns="http://www.w3.org/2000/svg">
<path d="M10 0.333496H24C29.3334 0.333496 33.6667 4.66683 33.6667 10.0002V24.0002C33.6667 26.5639 32.6483 29.0227 30.8354 30.8355C29.0226 32.6484 26.5638 33.6668 24 33.6668H10C4.66671 33.6668 0.333374 29.3335 0.333374 24.0002V10.0002C0.333374 7.4364 1.35182 4.97765 3.16468 3.1648C4.97753 1.35195 7.43628 0.333496 10 0.333496ZM9.66671 3.66683C8.07541 3.66683 6.54929 4.29897 5.42407 5.42419C4.29885 6.54941 3.66671 8.07553 3.66671 9.66683V24.3335C3.66671 27.6502 6.35004 30.3335 9.66671 30.3335H24.3334C25.9247 30.3335 27.4508 29.7014 28.576 28.5761C29.7012 27.4509 30.3334 25.9248 30.3334 24.3335V9.66683C30.3334 6.35016 27.65 3.66683 24.3334 3.66683H9.66671ZM25.75 6.16683C26.3026 6.16683 26.8325 6.38632 27.2232 6.77702C27.6139 7.16772 27.8334 7.69763 27.8334 8.25016C27.8334 8.8027 27.6139 9.3326 27.2232 9.7233C26.8325 10.114 26.3026 10.3335 25.75 10.3335C25.1975 10.3335 24.6676 10.114 24.2769 9.7233C23.8862 9.3326 23.6667 8.8027 23.6667 8.25016C23.6667 7.69763 23.8862 7.16772 24.2769 6.77702C24.6676 6.38632 25.1975 6.16683 25.75 6.16683ZM17 8.66683C19.2102 8.66683 21.3298 9.5448 22.8926 11.1076C24.4554 12.6704 25.3334 14.79 25.3334 17.0002C25.3334 19.2103 24.4554 21.3299 22.8926 22.8927C21.3298 24.4555 19.2102 25.3335 17 25.3335C14.7899 25.3335 12.6703 24.4555 11.1075 22.8927C9.54468 21.3299 8.66671 19.2103 8.66671 17.0002C8.66671 14.79 9.54468 12.6704 11.1075 11.1076C12.6703 9.5448 14.7899 8.66683 17 8.66683ZM17 12.0002C15.674 12.0002 14.4022 12.5269 13.4645 13.4646C12.5268 14.4023 12 15.6741 12 17.0002C12 18.3262 12.5268 19.598 13.4645 20.5357C14.4022 21.4734 15.674 22.0002 17 22.0002C18.3261 22.0002 19.5979 21.4734 20.5356 20.5357C21.4733 19.598 22 18.3262 22 17.0002C22 15.6741 21.4733 14.4023 20.5356 13.4646C19.5979 12.5269 18.3261 12.0002 17 12.0002Z" fill="#2F98C2"/>
</svg>
