<svg width="20" height="20" viewBox="0 0 20 20" fill="none" xmlns="http://www.w3.org/2000/svg">
<path d="M3.47141 0C2.76786 0 2.09313 0.334039 1.59564 0.928633C1.09816 1.52323 0.818675 2.32967 0.818675 3.17055V8.68243C1.18106 8.21592 1.59262 7.80764 2.04302 7.46787V3.17055C2.04302 2.22817 2.68294 1.46333 3.47141 1.46333H12.0434C12.8327 1.46333 13.4718 2.22817 13.4718 3.17055V13.4139C13.4718 13.8667 13.3213 14.3009 13.0535 14.6211C12.7856 14.9412 12.4223 15.1211 12.0434 15.1211H11.3072C11.2218 15.6238 11.0921 16.1143 10.9203 16.5844H12.0434C12.747 16.5844 13.4217 16.2504 13.9192 15.6558C14.4167 15.0612 14.6962 14.2548 14.6962 13.4139V11.8725L18.4026 14.9084C18.5558 15.034 18.7348 15.1072 18.9202 15.1201C19.1057 15.1331 19.2905 15.0853 19.4549 14.9819C19.6193 14.8785 19.7569 14.7234 19.853 14.5334C19.949 14.3434 19.9999 14.1256 20 13.9036V2.67985C19.9998 2.45799 19.9489 2.24042 19.8529 2.05055C19.7569 1.86069 19.6193 1.70573 19.4551 1.60236C19.2909 1.49899 19.1061 1.45113 18.9208 1.46393C18.7355 1.47674 18.5566 1.54972 18.4035 1.67503L14.6962 4.709V3.17055C14.6962 2.32967 14.4167 1.52323 13.9192 0.928633C13.4217 0.334039 12.747 0 12.0434 0H3.47141ZM14.6962 10.0989V6.48256L18.7757 3.14421V13.4402L14.6962 10.0989ZM10.6142 13.6578C10.6144 14.7613 10.3736 15.8457 9.91567 16.8039C9.45775 17.7621 8.79854 18.5609 8.00319 19.1214C7.20784 19.6818 6.3039 19.9844 5.3807 19.9994C4.45751 20.0144 3.54703 19.7411 2.73926 19.2067L0.522385 19.9784C0.45215 20.0029 0.3777 20.0043 0.306827 19.9826C0.235955 19.9609 0.171267 19.9169 0.119534 19.855C0.0678007 19.7932 0.0309256 19.7159 0.0127684 19.6312C-0.00538891 19.5465 -0.00416064 19.4575 0.0163245 19.3735L0.664409 16.7269C0.273122 15.88 0.0491366 14.9374 0.00959924 13.9711C-0.0299382 13.0049 0.11602 12.0407 0.436302 11.1522C0.756583 10.2638 1.2427 9.4747 1.85743 8.84539C2.47216 8.21608 3.19922 7.76322 3.98294 7.52147C4.76666 7.27973 5.58628 7.25551 6.37904 7.45066C7.1718 7.64582 7.91669 8.05518 8.55669 8.64742C9.1967 9.23965 9.71484 9.99905 10.0715 10.8675C10.4281 11.7359 10.6137 12.6904 10.6142 13.6578ZM3.26736 12.1944C3.15912 12.1944 3.05531 12.2458 2.97878 12.3373C2.90224 12.4288 2.85924 12.5528 2.85924 12.6822C2.85924 12.8116 2.90224 12.9356 2.97878 13.0271C3.05531 13.1186 3.15912 13.17 3.26736 13.17H7.34849C7.45673 13.17 7.56053 13.1186 7.63707 13.0271C7.7136 12.9356 7.7566 12.8116 7.7566 12.6822C7.7566 12.5528 7.7136 12.4288 7.63707 12.3373C7.56053 12.2458 7.45673 12.1944 7.34849 12.1944H3.26736ZM2.85924 14.6333C2.85924 14.7627 2.90224 14.8868 2.97878 14.9782C3.05531 15.0697 3.15912 15.1211 3.26736 15.1211H5.30792C5.41616 15.1211 5.51997 15.0697 5.5965 14.9782C5.67304 14.8868 5.71603 14.7627 5.71603 14.6333C5.71603 14.5039 5.67304 14.3799 5.5965 14.2884C5.51997 14.1969 5.41616 14.1455 5.30792 14.1455H3.26736C3.15912 14.1455 3.05531 14.1969 2.97878 14.2884C2.90224 14.3799 2.85924 14.5039 2.85924 14.6333Z" fill="#1E3673"/>
</svg>
