<svg width="60" height="60" viewBox="0 0 60 60" fill="none" xmlns="http://www.w3.org/2000/svg">
<circle cx="30" cy="30" r="30" fill="#F5F5F5"/>
<circle cx="30" cy="30" r="29.5" stroke="black" stroke-opacity="0.7"/>
<path d="M30 29.5C30.6875 29.5 31.2762 29.255 31.7663 28.765C32.2563 28.275 32.5008 27.6867 32.5 27C32.5 26.3125 32.255 25.7238 31.765 25.2337C31.275 24.7438 30.6867 24.4992 30 24.5C29.3125 24.5 28.7238 24.745 28.2337 25.235C27.7438 25.725 27.4992 26.3133 27.5 27C27.5 27.6875 27.745 28.2762 28.235 28.7663C28.725 29.2563 29.3133 29.5008 30 29.5ZM30 42C26.6458 39.1458 24.1408 36.495 22.485 34.0475C20.8292 31.6 20.0008 29.3342 20 27.25C20 24.125 21.0054 21.6354 23.0163 19.7812C25.0271 17.9271 27.355 17 30 17C32.6458 17 34.9742 17.9271 36.985 19.7812C38.9958 21.6354 40.0008 24.125 40 27.25C40 29.3333 39.1717 31.5992 37.515 34.0475C35.8583 36.4958 33.3533 39.1467 30 42Z" fill="black" fill-opacity="0.7"/>
</svg>
