<svg width="21" height="21" viewBox="0 0 21 21" fill="none" xmlns="http://www.w3.org/2000/svg">
<path d="M20.8126 18.5347L20.5765 18.3264C19.9067 17.7296 19.3204 17.0452 18.8334 16.2917C18.3017 15.2518 17.9829 14.1161 17.8959 12.9514V9.52083C17.9005 7.69139 17.2369 5.92324 16.0298 4.54859C14.8227 3.17393 13.1551 2.2874 11.3404 2.05555V1.15972C11.3404 0.913841 11.2427 0.678034 11.0688 0.504172C10.895 0.33031 10.6592 0.232635 10.4133 0.232635C10.1674 0.232635 9.93162 0.33031 9.75776 0.504172C9.58389 0.678034 9.48622 0.913841 9.48622 1.15972V2.06944C7.68779 2.318 6.04037 3.2099 4.84909 4.57993C3.65781 5.94997 3.00339 7.70531 3.00705 9.52083V12.9514C2.92008 14.1161 2.60134 15.2518 2.06955 16.2917C1.591 17.0433 1.01413 17.7276 0.354275 18.3264L0.118164 18.5347V20.4931H20.8126V18.5347Z" fill="#2F98C2"/>
</svg>
