<svg width="60" height="60" viewBox="0 0 60 60" fill="none" xmlns="http://www.w3.org/2000/svg">
<circle cx="30" cy="30" r="30" fill="#F5F5F5"/>
<circle cx="30" cy="30" r="29.5" stroke="black" stroke-opacity="0.7"/>
<path d="M39.79 35.1311C38.2867 35.1311 36.8322 34.8867 35.4756 34.4467C35.263 34.3746 35.0345 34.3639 34.8161 34.4158C34.5978 34.4677 34.3985 34.58 34.2411 34.74L32.3222 37.1478C28.8633 35.4978 25.6244 32.3811 23.9011 28.8L26.2844 26.7711C26.6144 26.4289 26.7122 25.9522 26.5778 25.5244C26.1256 24.1678 25.8933 22.7133 25.8933 21.21C25.8933 20.55 25.3433 20 24.6833 20H20.4544C19.7944 20 19 20.2933 19 21.21C19 32.5644 28.4478 42 39.79 42C40.6578 42 41 41.23 41 40.5578V36.3411C41 35.6811 40.45 35.1311 39.79 35.1311Z" fill="black" fill-opacity="0.7"/>
</svg>
