<svg width="38" height="31" viewBox="0 0 38 31" fill="none" xmlns="http://www.w3.org/2000/svg">
<path d="M22.4301 1.68315C19.4184 2.96148 17.4384 5.77148 17.3367 8.98315L17.3334 9.28648L16.9284 9.24815C12.9417 8.79981 9.43172 6.72815 7.02172 3.36315C6.85853 3.13509 6.64043 2.9519 6.38762 2.83053C6.13481 2.70917 5.85547 2.65356 5.57546 2.66884C5.29544 2.68413 5.02382 2.76983 4.78572 2.918C4.54763 3.06616 4.35078 3.27201 4.21339 3.51648L4.05172 3.82648L3.97005 3.99148C2.77172 6.46648 1.98672 9.47481 2.27505 12.6631L2.32505 13.1181C2.79672 16.8898 4.82505 20.1431 8.62339 22.5831L8.91172 22.7615L8.77672 22.8331C6.58505 23.9381 4.58005 24.4198 2.39839 24.3331C0.638385 24.2665 -0.0116147 26.6198 1.53505 27.4631C7.53172 30.7315 13.9701 31.7398 19.5217 30.1298C26.2884 28.1631 31.4417 23.0915 33.4134 16.0748L33.625 15.2498C34.0217 13.5948 34.2451 11.9065 34.2934 10.2098L34.2984 9.65648L34.9534 8.35815L35.6867 6.92148L36.0434 6.19815L36.2401 5.78648C36.6817 4.84481 37 4.06481 37.1967 3.40315L37.2201 3.30981L37.2334 3.27981C37.6001 2.29148 36.9567 1.01648 35.6651 1.01648L35.4617 1.02815C35.3301 1.04433 35.2008 1.07623 35.0767 1.12315L34.9334 1.18648C34.4578 1.41746 33.9679 1.61787 33.4667 1.78648L32.8734 1.97815L32.4217 2.11148L31.1351 2.46815C28.9084 0.604814 25.8951 0.378147 22.7817 1.54481L22.4301 1.68315Z" fill="#2F98C2"/>
</svg>
